# Blender 4.1.1
# www.blender.org
mtllib reed.mtl
o 栅格.049
v -0.014114 2.985689 0.170642
v -0.010740 2.820735 0.147050
v -0.007366 2.655781 0.123458
v -0.003992 2.490827 0.099865
v -0.000619 2.325873 0.076273
v 0.002755 2.160919 0.052681
v 0.006129 1.995965 0.029089
v -0.026371 2.993759 0.112464
v -0.022997 2.828805 0.088872
v -0.019624 2.663851 0.065280
v -0.016250 2.498897 0.041688
v -0.012876 2.333943 0.018096
v -0.009503 2.168989 -0.005497
v -0.006129 2.004035 -0.029089
v 0.000000 2.000000 0.030000
v 0.000000 1.666667 0.030000
v 0.000000 1.333333 0.030000
v 0.000000 1.000000 0.030000
v -0.000000 0.666667 0.030000
v -0.000000 0.333333 0.030000
v -0.000000 0.000000 0.030000
v 0.000000 2.000000 -0.030000
v 0.000000 1.666667 -0.030000
v 0.000000 1.333333 -0.030000
v 0.000000 1.000000 -0.030000
v -0.000000 0.666667 -0.030000
v -0.000000 0.333333 -0.030000
v -0.000000 -0.000000 -0.030000
v -0.446943 2.956952 0.031685
v -0.372453 2.797460 0.031685
v -0.297962 2.637968 0.031685
v -0.223472 2.478476 0.031685
v -0.148981 2.318984 0.031685
v -0.074491 2.159492 0.031685
v -0.000000 2.000000 0.031685
v -0.446943 2.956952 -0.031685
v -0.372453 2.797460 -0.031685
v -0.297962 2.637968 -0.031685
v -0.223472 2.478476 -0.031685
v -0.148981 2.318984 -0.031685
v -0.074491 2.159492 -0.031685
v -0.000000 2.000000 -0.031685
v -0.979669 2.553235 0.030000
v -0.816391 2.461029 0.030000
v -0.653113 2.368824 0.030000
v -0.489835 2.276618 0.030000
v -0.326557 2.184412 0.030000
v -0.163279 2.092206 0.030000
v -0.000000 2.000000 0.030000
v -0.979669 2.553235 -0.030000
v -0.816391 2.461029 -0.030000
v -0.653113 2.368824 -0.030000
v -0.489835 2.276618 -0.030000
v -0.326557 2.184412 -0.030000
v -0.163279 2.092206 -0.030000
v -0.000000 2.000000 -0.030000
v -0.751687 2.659521 0.030000
v -0.626406 2.549601 0.030000
v -0.501125 2.439681 0.030000
v -0.375843 2.329761 0.030000
v -0.250562 2.219841 0.030000
v -0.125281 2.109921 0.030000
v -0.000000 2.000000 0.030000
v -0.751687 2.659521 -0.030000
v -0.626406 2.549601 -0.030000
v -0.501125 2.439681 -0.030000
v -0.375843 2.329761 -0.030000
v -0.250562 2.219841 -0.030000
v -0.125281 2.109921 -0.030000
v -0.000000 2.000000 -0.030000
v -0.643341 2.957986 0.030000
v -0.536118 2.798321 0.030000
v -0.428894 2.638657 0.030000
v -0.321671 2.478993 0.030000
v -0.214447 2.319329 0.030000
v -0.107224 2.159665 0.030000
v -0.000000 2.000000 0.030000
v -0.643341 2.957986 -0.030000
v -0.536118 2.798321 -0.030000
v -0.428894 2.638657 -0.030000
v -0.321671 2.478993 -0.030000
v -0.214447 2.319329 -0.030000
v -0.107224 2.159665 -0.030000
v -0.000000 2.000000 -0.030000
v -0.150817 2.988562 0.030000
v -0.125681 2.823802 0.030000
v -0.100545 2.659042 0.030000
v -0.075408 2.494281 0.030000
v -0.050272 2.329521 0.030000
v -0.025136 2.164761 0.030000
v -0.000000 2.000000 0.030000
v -0.150817 2.988562 -0.030000
v -0.125681 2.823802 -0.030000
v -0.100545 2.659042 -0.030000
v -0.075408 2.494281 -0.030000
v -0.050272 2.329521 -0.030000
v -0.025136 2.164761 -0.030000
v -0.000000 2.000000 -0.030000
v 0.114517 3.065316 0.030000
v 0.095430 2.887763 0.030000
v 0.076344 2.710211 0.030000
v 0.057258 2.532658 0.030000
v 0.038172 2.355106 0.030000
v 0.019086 2.177553 0.030000
v 0.000000 2.000000 0.030000
v 0.114517 3.065316 -0.030000
v 0.095430 2.887763 -0.030000
v 0.076344 2.710211 -0.030000
v 0.057258 2.532658 -0.030000
v 0.038172 2.355106 -0.030000
v 0.019086 2.177553 -0.030000
v 0.000000 2.000000 -0.030000
v -0.315555 2.977769 0.030000
v -0.262963 2.814807 0.030000
v -0.210370 2.651846 0.030000
v -0.157778 2.488885 0.030000
v -0.105185 2.325923 0.030000
v -0.052593 2.162962 0.030000
v -0.000000 2.000000 0.030000
v -0.315555 2.977769 -0.030000
v -0.262963 2.814807 -0.030000
v -0.210370 2.651846 -0.030000
v -0.157778 2.488885 -0.030000
v -0.105185 2.325923 -0.030000
v -0.052593 2.162962 -0.030000
v -0.000000 2.000000 -0.030000
v -0.978847 2.204594 0.030000
v -0.815706 2.170495 0.030000
v -0.652565 2.136396 0.030000
v -0.489424 2.102297 0.030000
v -0.326283 2.068198 0.030000
v -0.163142 2.034099 0.030000
v -0.000000 2.000000 0.030000
v -0.978847 2.204594 -0.030000
v -0.815706 2.170495 -0.030000
v -0.652565 2.136396 -0.030000
v -0.489424 2.102297 -0.030000
v -0.326283 2.068198 -0.030000
v -0.163142 2.034099 -0.030000
v -0.000000 2.000000 -0.030000
v -0.551901 2.821823 -0.144614
v -0.460403 2.685576 -0.115588
v -0.368905 2.549328 -0.086562
v -0.277407 2.413081 -0.057536
v -0.185909 2.276833 -0.028510
v -0.094411 2.140585 0.000516
v -0.002913 2.004338 0.029541
v -0.546075 2.813148 -0.203697
v -0.454577 2.676901 -0.174671
v -0.363079 2.540653 -0.145645
v -0.271581 2.404406 -0.116619
v -0.180083 2.268158 -0.087593
v -0.088585 2.131911 -0.058568
v 0.002913 1.995663 -0.029542
v -0.900849 2.701921 -0.129301
v -0.750281 2.586575 -0.102999
v -0.599713 2.471229 -0.076697
v -0.449145 2.355882 -0.050396
v -0.298577 2.240535 -0.024094
v -0.148009 2.125189 0.002208
v 0.002559 2.009843 0.028510
v -0.905969 2.682237 -0.186321
v -0.755401 2.566890 -0.160019
v -0.604832 2.451544 -0.133717
v -0.454264 2.336198 -0.107415
v -0.303696 2.220851 -0.081113
v -0.153128 2.105505 -0.054812
v -0.002560 1.990158 -0.028510
v -0.926776 2.497441 -0.056355
v -0.771496 2.416860 -0.042578
v -0.616215 2.336279 -0.028800
v -0.460934 2.255698 -0.015023
v -0.305654 2.175118 -0.001246
v -0.150373 2.094537 0.012531
v 0.004908 2.013956 0.026308
v -0.936592 2.469529 -0.108972
v -0.781312 2.388948 -0.095194
v -0.626031 2.308367 -0.081417
v -0.470750 2.227787 -0.067640
v -0.315470 2.147206 -0.053863
v -0.160189 2.066625 -0.040086
v -0.004908 1.986044 -0.026308
v -0.955382 2.292239 -0.052360
v -0.795806 2.245959 -0.039275
v -0.636229 2.199678 -0.026190
v -0.476653 2.153398 -0.013105
v -0.317076 2.107118 -0.000020
v -0.157499 2.060837 0.013064
v 0.002077 2.014557 0.026149
v -0.959538 2.263126 -0.104658
v -0.799961 2.216846 -0.091573
v -0.640384 2.170565 -0.078488
v -0.480808 2.124285 -0.065404
v -0.321231 2.078004 -0.052319
v -0.161655 2.031724 -0.039234
v -0.002078 1.985443 -0.026149
v -0.418176 2.932398 -0.150231
v -0.348837 2.777794 -0.120264
v -0.279498 2.623189 -0.090296
v -0.210158 2.468585 -0.060329
v -0.140819 2.313981 -0.030362
v -0.071480 2.159377 -0.000395
v -0.002140 2.004772 0.029572
v -0.413896 2.922854 -0.209375
v -0.344556 2.768250 -0.179408
v -0.275217 2.613645 -0.149440
v -0.205878 2.459041 -0.119473
v -0.136539 2.304437 -0.089506
v -0.067199 2.149832 -0.059539
v 0.002140 1.995228 -0.029572
v -0.272987 2.951560 -0.144614
v -0.227730 2.793803 -0.115588
v -0.182472 2.636047 -0.086562
v -0.137214 2.478291 -0.057536
v -0.091956 2.320535 -0.028510
v -0.046699 2.162779 0.000516
v -0.001441 2.005023 0.029541
v -0.270106 2.941515 -0.203697
v -0.224848 2.783759 -0.174671
v -0.179590 2.626003 -0.145645
v -0.134333 2.468247 -0.116619
v -0.089075 2.310491 -0.087593
v -0.043817 2.152735 -0.058568
v 0.001441 1.994978 -0.029542
v -0.112313 3.037561 -0.154054
v -0.093688 2.865502 -0.123446
v -0.075063 2.693442 -0.092838
v -0.056438 2.521383 -0.062230
v -0.037813 2.349323 -0.031623
v -0.019188 2.177263 -0.001015
v -0.000563 2.005204 0.029593
v -0.111186 3.027154 -0.213241
v -0.092561 2.855095 -0.182633
v -0.073936 2.683035 -0.152025
v -0.055312 2.510976 -0.121417
v -0.036687 2.338916 -0.090809
v -0.018062 2.166857 -0.060201
v 0.000563 1.994797 -0.029593
v -0.017548 3.029332 -0.151568
v -0.014638 2.858649 -0.121377
v -0.011728 2.687965 -0.091185
v -0.008819 2.517282 -0.060994
v -0.005909 2.346598 -0.030803
v -0.002999 2.175915 -0.000612
v -0.000089 2.005231 0.029579
v -0.017370 3.018871 -0.210726
v -0.014460 2.848188 -0.180535
v -0.011550 2.677504 -0.150344
v -0.008640 2.506820 -0.120153
v -0.005730 2.336137 -0.089962
v -0.002821 2.165453 -0.059771
v 0.000089 1.994770 -0.029579
v -0.605061 2.900984 0.252034
v -0.503654 2.749981 0.214990
v -0.402247 2.598978 0.177945
v -0.300841 2.447976 0.140901
v -0.199434 2.296973 0.103857
v -0.098027 2.145970 0.066812
v 0.003380 1.994967 0.029768
v -0.611821 2.911050 0.192498
v -0.510414 2.760047 0.155453
v -0.409007 2.609044 0.118409
v -0.307601 2.458041 0.081365
v -0.206194 2.307039 0.044321
v -0.104787 2.156036 0.007276
v -0.003380 2.005033 -0.029768
v -0.886524 2.679553 0.278592
v -0.737323 2.566421 0.237008
v -0.588121 2.453290 0.195424
v -0.438919 2.340158 0.153841
v -0.289717 2.227027 0.112257
v -0.140516 2.113895 0.070673
v 0.008686 2.000764 0.029089
v -0.903897 2.678025 0.220414
v -0.754695 2.564894 0.178830
v -0.605494 2.451762 0.137246
v -0.456292 2.338631 0.095663
v -0.307090 2.225500 0.054079
v -0.157888 2.112368 0.012495
v -0.008687 1.999237 -0.029089
v -0.856308 2.437802 0.275622
v -0.711828 2.365734 0.234277
v -0.567347 2.293665 0.192932
v -0.422867 2.221596 0.151587
v -0.278387 2.149528 0.110242
v -0.133907 2.077460 0.068897
v 0.010573 2.005391 0.027553
v -0.877455 2.427020 0.220517
v -0.732975 2.354952 0.179172
v -0.588495 2.282883 0.137827
v -0.444014 2.210815 0.096482
v -0.299534 2.138746 0.055137
v -0.155054 2.066678 0.013792
v -0.010574 1.994609 -0.027552
v -0.935913 2.263248 0.235939
v -0.778619 2.220366 0.201339
v -0.621324 2.177483 0.166738
v -0.464029 2.134601 0.132137
v -0.306734 2.091718 0.097536
v -0.149439 2.048835 0.062936
v 0.007855 2.005953 0.028335
v -0.951625 2.251343 0.179270
v -0.794330 2.208461 0.144669
v -0.637035 2.165578 0.110069
v -0.479741 2.122695 0.075468
v -0.322446 2.079813 0.040867
v -0.165151 2.036930 0.006266
v -0.007856 1.994048 -0.028335
v -0.425909 2.956008 0.238149
v -0.354234 2.795911 0.203393
v -0.282558 2.635814 0.168637
v -0.210883 2.475717 0.133881
v -0.139207 2.315620 0.099125
v -0.067532 2.155524 0.064369
v 0.004143 1.995427 0.029613
v -0.434196 2.965155 0.178924
v -0.362521 2.805058 0.144168
v -0.290846 2.644961 0.109412
v -0.219170 2.484865 0.074656
v -0.147495 2.324768 0.039900
v -0.075819 2.164671 0.005144
v -0.004144 2.004574 -0.029612
v -0.271271 2.959784 0.215101
v -0.225257 2.799106 0.184147
v -0.179243 2.638429 0.153193
v -0.133230 2.477751 0.122238
v -0.087216 2.317074 0.091284
v -0.041202 2.156397 0.060330
v 0.004811 1.995719 0.029375
v -0.280894 2.968346 0.156351
v -0.234880 2.807669 0.125397
v -0.188866 2.646991 0.094442
v -0.142853 2.486314 0.063488
v -0.096839 2.325636 0.032534
v -0.050825 2.164959 0.001579
v -0.004812 2.004282 -0.029375
v -0.110272 3.053327 0.199860
v -0.090938 2.877085 0.171470
v -0.071604 2.700843 0.143080
v -0.052270 2.524601 0.114690
v -0.032936 2.348358 0.086300
v -0.013602 2.172116 0.057910
v 0.005732 1.995874 0.029520
v -0.121736 3.061580 0.140819
v -0.102402 2.885338 0.112429
v -0.083068 2.709095 0.084039
v -0.063734 2.532853 0.055650
v -0.044400 2.356611 0.027260
v -0.025066 2.180369 -0.001130
v -0.005732 2.004127 -0.029520
vn 0.9787 0.0485 -0.1995
vn 1.0000 -0.0000 -0.0000
vn 0.9061 0.4232 -0.0000
vn 0.4917 0.8707 -0.0000
vn 0.6595 0.7517 -0.0000
vn 0.8302 0.5575 -0.0000
vn 0.9886 0.1508 -0.0000
vn 0.9943 -0.1069 -0.0000
vn 0.9517 0.3071 -0.0000
vn 0.2046 0.9788 -0.0000
vn 0.6120 0.7290 -0.3066
vn 0.4365 0.7585 -0.4838
vn 0.2801 0.8291 -0.4838
vn 0.9124 0.4092 -0.0000
vn 0.9612 0.2758 -0.0000
vn 0.9942 0.1076 -0.0000
vn 0.9999 0.0170 -0.0000
vn 0.5595 0.8071 -0.1883
vn 0.3526 0.8836 -0.3082
vn 0.2018 0.9457 -0.2546
vn 0.9059 0.4190 -0.0620
vn 0.9493 0.2936 -0.1127
vn 0.9761 0.1346 -0.1707
s 0
f 2//1 8//1 1//1
f 3//1 9//1 2//1
f 4//1 10//1 3//1
f 5//1 11//1 4//1
f 6//1 12//1 5//1
f 7//1 13//1 6//1
f 15//2 23//2 22//2
f 16//2 24//2 23//2
f 17//2 25//2 24//2
f 18//2 26//2 25//2
f 19//2 27//2 26//2
f 20//2 28//2 27//2
f 29//3 37//3 36//3
f 30//3 38//3 37//3
f 31//3 39//3 38//3
f 32//3 40//3 39//3
f 33//3 41//3 40//3
f 34//3 42//3 41//3
f 43//4 51//4 50//4
f 44//4 52//4 51//4
f 45//4 53//4 52//4
f 46//4 54//4 53//4
f 47//4 55//4 54//4
f 48//4 56//4 55//4
f 57//5 65//5 64//5
f 58//5 66//5 65//5
f 59//5 67//5 66//5
f 60//5 68//5 67//5
f 61//5 69//5 68//5
f 62//5 70//5 69//5
f 71//6 79//6 78//6
f 72//6 80//6 79//6
f 73//6 81//6 80//6
f 74//6 82//6 81//6
f 75//6 83//6 82//6
f 76//6 84//6 83//6
f 85//7 93//7 92//7
f 86//7 94//7 93//7
f 87//7 95//7 94//7
f 88//7 96//7 95//7
f 89//7 97//7 96//7
f 90//7 98//7 97//7
f 99//8 107//8 106//8
f 100//8 108//8 107//8
f 101//8 109//8 108//8
f 102//8 110//8 109//8
f 103//8 111//8 110//8
f 104//8 112//8 111//8
f 113//9 121//9 120//9
f 114//9 122//9 121//9
f 115//9 123//9 122//9
f 116//9 124//9 123//9
f 117//9 125//9 124//9
f 118//9 126//9 125//9
f 127//10 135//10 134//10
f 128//10 136//10 135//10
f 129//10 137//10 136//10
f 130//10 138//10 137//10
f 131//10 139//10 138//10
f 132//10 140//10 139//10
f 141//6 149//6 148//6
f 142//6 150//6 149//6
f 143//6 151//6 150//6
f 144//6 152//6 151//6
f 145//6 153//6 152//6
f 146//6 154//6 153//6
f 155//11 163//11 162//11
f 156//11 164//11 163//11
f 157//11 165//11 164//11
f 158//11 166//11 165//11
f 159//11 167//11 166//11
f 160//11 168//11 167//11
f 169//12 177//12 176//12
f 170//12 178//12 177//12
f 171//12 179//12 178//12
f 172//12 180//12 179//12
f 173//12 181//12 180//12
f 174//12 182//12 181//12
f 183//13 191//13 190//13
f 184//13 192//13 191//13
f 185//13 193//13 192//13
f 186//13 194//13 193//13
f 187//13 195//13 194//13
f 188//13 196//13 195//13
f 197//14 205//14 204//14
f 198//14 206//14 205//14
f 199//14 207//14 206//14
f 200//14 208//14 207//14
f 201//14 209//14 208//14
f 202//14 210//14 209//14
f 211//15 219//15 218//15
f 212//15 220//15 219//15
f 213//15 221//15 220//15
f 214//15 222//15 221//15
f 215//15 223//15 222//15
f 216//15 224//15 223//15
f 225//16 233//16 232//16
f 226//16 234//16 233//16
f 227//16 235//16 234//16
f 228//16 236//16 235//16
f 229//16 237//16 236//16
f 230//16 238//16 237//16
f 239//17 247//17 246//17
f 240//17 248//17 247//17
f 241//17 249//17 248//17
f 242//17 250//17 249//17
f 243//17 251//17 250//17
f 244//17 252//17 251//17
f 253//6 261//6 260//6
f 254//6 262//6 261//6
f 255//6 263//6 262//6
f 256//6 264//6 263//6
f 257//6 265//6 264//6
f 258//6 266//6 265//6
f 267//18 275//18 274//18
f 268//18 276//18 275//18
f 269//18 277//18 276//18
f 270//18 278//18 277//18
f 271//18 279//18 278//18
f 272//18 280//18 279//18
f 282//19 288//19 281//19
f 283//19 289//19 282//19
f 284//19 290//19 283//19
f 285//19 291//19 284//19
f 286//19 292//19 285//19
f 287//19 293//19 286//19
f 295//20 303//20 302//20
f 296//20 304//20 303//20
f 297//20 305//20 304//20
f 298//20 306//20 305//20
f 299//20 307//20 306//20
f 300//20 308//20 307//20
f 309//21 317//21 316//21
f 310//21 318//21 317//21
f 311//21 319//21 318//21
f 312//21 320//21 319//21
f 313//21 321//21 320//21
f 314//21 322//21 321//21
f 323//22 331//22 330//22
f 324//22 332//22 331//22
f 325//22 333//22 332//22
f 326//22 334//22 333//22
f 327//22 335//22 334//22
f 328//22 336//22 335//22
f 337//23 345//23 344//23
f 338//23 346//23 345//23
f 339//23 347//23 346//23
f 340//23 348//23 347//23
f 341//23 349//23 348//23
f 342//23 350//23 349//23
f 2//1 9//1 8//1
f 3//1 10//1 9//1
f 4//1 11//1 10//1
f 5//1 12//1 11//1
f 6//1 13//1 12//1
f 7//1 14//1 13//1
f 15//2 16//2 23//2
f 16//2 17//2 24//2
f 17//2 18//2 25//2
f 18//2 19//2 26//2
f 19//2 20//2 27//2
f 20//2 21//2 28//2
f 29//3 30//3 37//3
f 30//3 31//3 38//3
f 31//3 32//3 39//3
f 32//3 33//3 40//3
f 33//3 34//3 41//3
f 34//3 35//3 42//3
f 43//4 44//4 51//4
f 44//4 45//4 52//4
f 45//4 46//4 53//4
f 46//4 47//4 54//4
f 47//4 48//4 55//4
f 48//4 49//4 56//4
f 57//5 58//5 65//5
f 58//5 59//5 66//5
f 59//5 60//5 67//5
f 60//5 61//5 68//5
f 61//5 62//5 69//5
f 62//5 63//5 70//5
f 71//6 72//6 79//6
f 72//6 73//6 80//6
f 73//6 74//6 81//6
f 74//6 75//6 82//6
f 75//6 76//6 83//6
f 76//6 77//6 84//6
f 85//7 86//7 93//7
f 86//7 87//7 94//7
f 87//7 88//7 95//7
f 88//7 89//7 96//7
f 89//7 90//7 97//7
f 90//7 91//7 98//7
f 99//8 100//8 107//8
f 100//8 101//8 108//8
f 101//8 102//8 109//8
f 102//8 103//8 110//8
f 103//8 104//8 111//8
f 104//8 105//8 112//8
f 113//9 114//9 121//9
f 114//9 115//9 122//9
f 115//9 116//9 123//9
f 116//9 117//9 124//9
f 117//9 118//9 125//9
f 118//9 119//9 126//9
f 127//10 128//10 135//10
f 128//10 129//10 136//10
f 129//10 130//10 137//10
f 130//10 131//10 138//10
f 131//10 132//10 139//10
f 132//10 133//10 140//10
f 141//6 142//6 149//6
f 142//6 143//6 150//6
f 143//6 144//6 151//6
f 144//6 145//6 152//6
f 145//6 146//6 153//6
f 146//6 147//6 154//6
f 155//11 156//11 163//11
f 156//11 157//11 164//11
f 157//11 158//11 165//11
f 158//11 159//11 166//11
f 159//11 160//11 167//11
f 160//11 161//11 168//11
f 169//12 170//12 177//12
f 170//12 171//12 178//12
f 171//12 172//12 179//12
f 172//12 173//12 180//12
f 173//12 174//12 181//12
f 174//12 175//12 182//12
f 183//13 184//13 191//13
f 184//13 185//13 192//13
f 185//13 186//13 193//13
f 186//13 187//13 194//13
f 187//13 188//13 195//13
f 188//13 189//13 196//13
f 197//14 198//14 205//14
f 198//14 199//14 206//14
f 199//14 200//14 207//14
f 200//14 201//14 208//14
f 201//14 202//14 209//14
f 202//14 203//14 210//14
f 211//15 212//15 219//15
f 212//15 213//15 220//15
f 213//15 214//15 221//15
f 214//15 215//15 222//15
f 215//15 216//15 223//15
f 216//15 217//15 224//15
f 225//16 226//16 233//16
f 226//16 227//16 234//16
f 227//16 228//16 235//16
f 228//16 229//16 236//16
f 229//16 230//16 237//16
f 230//16 231//16 238//16
f 239//17 240//17 247//17
f 240//17 241//17 248//17
f 241//17 242//17 249//17
f 242//17 243//17 250//17
f 243//17 244//17 251//17
f 244//17 245//17 252//17
f 253//6 254//6 261//6
f 254//6 255//6 262//6
f 255//6 256//6 263//6
f 256//6 257//6 264//6
f 257//6 258//6 265//6
f 258//6 259//6 266//6
f 267//18 268//18 275//18
f 268//18 269//18 276//18
f 269//18 270//18 277//18
f 270//18 271//18 278//18
f 271//18 272//18 279//18
f 272//18 273//18 280//18
f 282//19 289//19 288//19
f 283//19 290//19 289//19
f 284//19 291//19 290//19
f 285//19 292//19 291//19
f 286//19 293//19 292//19
f 287//19 294//19 293//19
f 295//20 296//20 303//20
f 296//20 297//20 304//20
f 297//20 298//20 305//20
f 298//20 299//20 306//20
f 299//20 300//20 307//20
f 300//20 301//20 308//20
f 309//21 310//21 317//21
f 310//21 311//21 318//21
f 311//21 312//21 319//21
f 312//21 313//21 320//21
f 313//21 314//21 321//21
f 314//21 315//21 322//21
f 323//22 324//22 331//22
f 324//22 325//22 332//22
f 325//22 326//22 333//22
f 326//22 327//22 334//22
f 327//22 328//22 335//22
f 328//22 329//22 336//22
f 337//23 338//23 345//23
f 338//23 339//23 346//23
f 339//23 340//23 347//23
f 340//23 341//23 348//23
f 341//23 342//23 349//23
f 342//23 343//23 350//23
